<?xml version="1.0" standalone="no"?>
<!DOCTYPE svg PUBLIC "-//W3C//DTD SVG 20010904//EN"
 "http://www.w3.org/TR/2001/REC-SVG-20010904/DTD/svg10.dtd">
<svg version="1.0" xmlns="http://www.w3.org/2000/svg"
 width="102.000000pt" height="101.000000pt" viewBox="0 0 102.000000 101.000000"
 preserveAspectRatio="xMidYMid meet">

<g transform="translate(0.000000,101.000000) scale(0.100000,-0.100000)"
fill="#000000" stroke="none">
<path d="M441 704 c-27 -34 -27 -79 0 -128 11 -21 18 -44 15 -51 -2 -7 -24
-23 -49 -35 -26 -13 -54 -38 -70 -63 l-27 -41 0 31 c0 17 15 56 35 89 38 63
43 98 19 132 -17 25 -74 31 -92 9 -28 -33 -24 -73 15 -149 2 -4 -14 -16 -36
-28 -47 -24 -63 -49 -59 -93 6 -65 128 -107 309 -107 106 0 195 17 261 51 36
19 38 22 38 69 0 48 -1 50 -45 76 -48 28 -53 38 -30 68 20 26 19 90 -1 110
-21 22 -67 20 -87 -2 -30 -33 -20 -80 38 -182 17 -29 20 -70 5 -70 -5 0 -10 5
-10 12 0 23 -49 75 -89 93 -47 21 -51 37 -20 90 24 41 21 95 -7 126 -27 30
-87 25 -113 -7z"/>
</g>
</svg>
